<svg width="27" height="20" viewBox="0 0 27 20" fill="none" xmlns="http://www.w3.org/2000/svg">
<rect x="9.16125" y="5.30962" width="16.3226" height="9.30578" rx="2" fill="#9D9B9B" stroke="black"/>
<rect width="8.09086" height="2.91093" rx="1.45546" transform="matrix(-0.496172 -0.868225 0.905394 -0.424573 7.61578 9.12784)" fill="#9D9B9B" stroke="black"/>
<path d="M5.14974 1.94911C5.15048 2.47271 4.72661 2.89766 4.20301 2.89826L1.95072 2.90086C1.42711 2.90147 1.00205 2.47749 1.00132 1.95389V1.95389C1.00058 1.43029 1.42445 1.00534 1.94805 1.00473L4.20034 1.00213C4.72395 1.00153 5.14901 1.4255 5.14974 1.94911V1.94911Z" fill="#9D9B9B" stroke="black"/>
<path d="M12.7771 18.631C13.4836 18.631 14.0191 18.0388 14.0191 17.3555C14.0191 16.6721 13.4836 16.08 12.7771 16.08C12.0706 16.08 11.5352 16.6721 11.5352 17.3555C11.5352 18.0388 12.0706 18.631 12.7771 18.631Z" fill="black" stroke="black"/>
<path d="M21.6804 18.631C22.3869 18.631 22.9223 18.0388 22.9223 17.3555C22.9223 16.6721 22.3869 16.08 21.6804 16.08C20.9738 16.08 20.4384 16.6721 20.4384 17.3555C20.4384 18.0388 20.9738 18.631 21.6804 18.631Z" fill="black" stroke="black"/>
<path d="M10.3082 11V8.45455H11.1982C11.3755 8.45455 11.5217 8.4852 11.6369 8.54652C11.7521 8.60701 11.8378 8.68862 11.8942 8.79137C11.9505 8.89329 11.9787 9.00639 11.9787 9.13068C11.9787 9.24006 11.9592 9.33037 11.9203 9.40163C11.8822 9.47289 11.8316 9.52924 11.7686 9.57067C11.7065 9.6121 11.639 9.64276 11.5661 9.66264V9.6875C11.6439 9.69247 11.7222 9.71982 11.801 9.76953C11.8797 9.81925 11.9455 9.89051 11.9986 9.98331C12.0516 10.0761 12.0781 10.1896 12.0781 10.3239C12.0781 10.4515 12.0491 10.5662 11.9911 10.6681C11.9331 10.7701 11.8416 10.8509 11.7164 10.9105C11.5913 10.9702 11.4285 11 11.228 11H10.3082ZM10.6165 10.7266H11.228C11.4293 10.7266 11.5723 10.6876 11.6568 10.6097C11.7421 10.531 11.7848 10.4357 11.7848 10.3239C11.7848 10.2377 11.7628 10.1581 11.7189 10.0852C11.675 10.0115 11.6125 9.95265 11.5312 9.90874C11.45 9.86399 11.3539 9.84162 11.2429 9.84162H10.6165V10.7266ZM10.6165 9.57315H11.1882C11.281 9.57315 11.3647 9.55492 11.4393 9.51847C11.5147 9.48201 11.5743 9.43063 11.6183 9.36435C11.663 9.29806 11.6854 9.22017 11.6854 9.13068C11.6854 9.01882 11.6464 8.92395 11.5685 8.84606C11.4906 8.76734 11.3672 8.72798 11.1982 8.72798H10.6165V9.57315ZM13.1066 11.0447C12.9856 11.0447 12.8759 11.022 12.7773 10.9764C12.6787 10.93 12.6003 10.8633 12.5423 10.7763C12.4843 10.6884 12.4553 10.5824 12.4553 10.4581C12.4553 10.3487 12.4769 10.2601 12.52 10.1921C12.5631 10.1233 12.6206 10.0695 12.6927 10.0305C12.7648 9.9916 12.8444 9.96259 12.9314 9.94354C13.0192 9.92365 13.1075 9.90791 13.1961 9.89631C13.3121 9.88139 13.4062 9.87021 13.4782 9.86275C13.5512 9.85446 13.6042 9.84079 13.6373 9.82173C13.6713 9.80268 13.6883 9.76953 13.6883 9.7223V9.71236C13.6883 9.58973 13.6547 9.49444 13.5876 9.42649C13.5213 9.35855 13.4207 9.32457 13.2856 9.32457C13.1456 9.32457 13.0358 9.35523 12.9562 9.41655C12.8767 9.47786 12.8208 9.54332 12.7884 9.61293L12.51 9.51349C12.5597 9.39749 12.626 9.30717 12.7089 9.24254C12.7926 9.17708 12.8837 9.13151 12.9823 9.10582C13.0818 9.07931 13.1795 9.06605 13.2757 9.06605C13.337 9.06605 13.4074 9.07351 13.4869 9.08842C13.5673 9.10251 13.6448 9.13192 13.7194 9.17667C13.7948 9.22141 13.8573 9.28894 13.907 9.37926C13.9568 9.46958 13.9816 9.59055 13.9816 9.74219V11H13.6883V10.7415H13.6734C13.6535 10.7829 13.6204 10.8272 13.574 10.8745C13.5276 10.9217 13.4658 10.9619 13.3888 10.995C13.3117 11.0282 13.2177 11.0447 13.1066 11.0447ZM13.1514 10.7812C13.2674 10.7812 13.3651 10.7585 13.4447 10.7129C13.5251 10.6673 13.5856 10.6085 13.6262 10.5364C13.6676 10.4643 13.6883 10.3885 13.6883 10.3089V10.0405C13.6759 10.0554 13.6485 10.0691 13.6063 10.0815C13.5648 10.0931 13.5168 10.1035 13.4621 10.1126C13.4082 10.1209 13.3556 10.1283 13.3042 10.1349C13.2537 10.1407 13.2127 10.1457 13.1812 10.1499C13.105 10.1598 13.0337 10.176 12.9674 10.1983C12.902 10.2199 12.8489 10.2526 12.8083 10.2965C12.7686 10.3396 12.7487 10.3984 12.7487 10.473C12.7487 10.5749 12.7864 10.652 12.8618 10.7042C12.938 10.7556 13.0345 10.7812 13.1514 10.7812ZM14.8103 8.45455V11H14.517V8.45455H14.8103ZM15.3476 11V9.09091H15.6409V11H15.3476ZM15.4967 8.77273C15.4395 8.77273 15.3902 8.75326 15.3488 8.71431C15.3082 8.67537 15.2879 8.62855 15.2879 8.57386C15.2879 8.51918 15.3082 8.47236 15.3488 8.43342C15.3902 8.39447 15.4395 8.375 15.4967 8.375C15.5539 8.375 15.6028 8.39447 15.6434 8.43342C15.6848 8.47236 15.7055 8.51918 15.7055 8.57386C15.7055 8.62855 15.6848 8.67537 15.6434 8.71431C15.6028 8.75326 15.5539 8.77273 15.4967 8.77273ZM16.3223 11H15.9992L16.9338 8.45455H17.252L18.1867 11H17.8635L17.1028 8.85724H17.083L16.3223 11ZM16.4416 10.0057H17.7442V10.2791H16.4416V10.0057ZM18.5831 11V8.45455H18.8765V9.39418H18.9013C18.9229 9.36103 18.9527 9.31877 18.9908 9.2674C19.0298 9.2152 19.0853 9.1688 19.1574 9.1282C19.2303 9.08677 19.3289 9.06605 19.4532 9.06605C19.6139 9.06605 19.7556 9.10624 19.8782 9.18661C20.0009 9.26699 20.0966 9.38092 20.1653 9.52841C20.2341 9.6759 20.2685 9.84991 20.2685 10.0504C20.2685 10.2526 20.2341 10.4279 20.1653 10.5762C20.0966 10.7237 20.0013 10.838 19.8795 10.9192C19.7577 10.9996 19.6172 11.0398 19.4581 11.0398C19.3355 11.0398 19.2373 11.0195 19.1636 10.9789C19.0898 10.9374 19.0331 10.8906 18.9933 10.8384C18.9535 10.7854 18.9229 10.7415 18.9013 10.7067H18.8665V11H18.5831ZM18.8715 10.0455C18.8715 10.1896 18.8926 10.3168 18.9349 10.427C18.9771 10.5364 19.0389 10.6222 19.1201 10.6843C19.2013 10.7456 19.3007 10.7763 19.4184 10.7763C19.541 10.7763 19.6433 10.744 19.7254 10.6793C19.8082 10.6139 19.8704 10.526 19.9118 10.4158C19.9541 10.3048 19.9752 10.1813 19.9752 10.0455C19.9752 9.91122 19.9545 9.79025 19.913 9.68253C19.8724 9.57398 19.8107 9.48822 19.7278 9.42525C19.6458 9.36145 19.5427 9.32955 19.4184 9.32955C19.2991 9.32955 19.1988 9.35979 19.1176 9.42028C19.0364 9.47994 18.9751 9.56362 18.9336 9.67134C18.8922 9.77823 18.8715 9.90294 18.8715 10.0455ZM20.757 11V8.45455H21.0503V9.39418H21.0752C21.0967 9.36103 21.1265 9.31877 21.1646 9.2674C21.2036 9.2152 21.2591 9.1688 21.3312 9.1282C21.4041 9.08677 21.5027 9.06605 21.627 9.06605C21.7877 9.06605 21.9294 9.10624 22.0521 9.18661C22.1747 9.26699 22.2704 9.38092 22.3392 9.52841C22.408 9.6759 22.4423 9.84991 22.4423 10.0504C22.4423 10.2526 22.408 10.4279 22.3392 10.5762C22.2704 10.7237 22.1751 10.838 22.0533 10.9192C21.9315 10.9996 21.7911 11.0398 21.632 11.0398C21.5093 11.0398 21.4111 11.0195 21.3374 10.9789C21.2637 10.9374 21.2069 10.8906 21.1671 10.8384C21.1274 10.7854 21.0967 10.7415 21.0752 10.7067H21.0403V11H20.757ZM21.0453 10.0455C21.0453 10.1896 21.0665 10.3168 21.1087 10.427C21.151 10.5364 21.2127 10.6222 21.2939 10.6843C21.3751 10.7456 21.4745 10.7763 21.5922 10.7763C21.7148 10.7763 21.8172 10.744 21.8992 10.6793C21.9821 10.6139 22.0442 10.526 22.0856 10.4158C22.1279 10.3048 22.149 10.1813 22.149 10.0455C22.149 9.91122 22.1283 9.79025 22.0869 9.68253C22.0463 9.57398 21.9845 9.48822 21.9017 9.42525C21.8196 9.36145 21.7165 9.32955 21.5922 9.32955C21.4729 9.32955 21.3726 9.35979 21.2914 9.42028C21.2102 9.47994 21.1489 9.56362 21.1075 9.67134C21.066 9.77823 21.0453 9.90294 21.0453 10.0455ZM23.4528 11.0447C23.3318 11.0447 23.222 11.022 23.1234 10.9764C23.0248 10.93 22.9465 10.8633 22.8885 10.7763C22.8305 10.6884 22.8015 10.5824 22.8015 10.4581C22.8015 10.3487 22.8231 10.2601 22.8662 10.1921C22.9093 10.1233 22.9668 10.0695 23.0389 10.0305C23.111 9.9916 23.1906 9.96259 23.2776 9.94354C23.3654 9.92365 23.4536 9.90791 23.5423 9.89631C23.6583 9.88139 23.7524 9.87021 23.8244 9.86275C23.8974 9.85446 23.9504 9.84079 23.9835 9.82173C24.0175 9.80268 24.0345 9.76953 24.0345 9.7223V9.71236C24.0345 9.58973 24.0009 9.49444 23.9338 9.42649C23.8675 9.35855 23.7669 9.32457 23.6318 9.32457C23.4918 9.32457 23.382 9.35523 23.3024 9.41655C23.2229 9.47786 23.1669 9.54332 23.1346 9.61293L22.8562 9.51349C22.9059 9.39749 22.9722 9.30717 23.0551 9.24254C23.1388 9.17708 23.2299 9.13151 23.3285 9.10582C23.428 9.07931 23.5257 9.06605 23.6218 9.06605C23.6832 9.06605 23.7536 9.07351 23.8331 9.08842C23.9135 9.10251 23.991 9.13192 24.0656 9.17667C24.141 9.22141 24.2035 9.28894 24.2532 9.37926C24.303 9.46958 24.3278 9.59055 24.3278 9.74219V11H24.0345V10.7415H24.0196C23.9997 10.7829 23.9665 10.8272 23.9201 10.8745C23.8737 10.9217 23.812 10.9619 23.735 10.995C23.6579 11.0282 23.5638 11.0447 23.4528 11.0447ZM23.4976 10.7812C23.6136 10.7812 23.7113 10.7585 23.7909 10.7129C23.8713 10.6673 23.9317 10.6085 23.9723 10.5364C24.0138 10.4643 24.0345 10.3885 24.0345 10.3089V10.0405C24.0221 10.0554 23.9947 10.0691 23.9525 10.0815C23.911 10.0931 23.863 10.1035 23.8083 10.1126C23.7544 10.1209 23.7018 10.1283 23.6504 10.1349C23.5999 10.1407 23.5589 10.1457 23.5274 10.1499C23.4512 10.1598 23.3799 10.176 23.3136 10.1983C23.2482 10.2199 23.1951 10.2526 23.1545 10.2965C23.1147 10.3396 23.0949 10.3984 23.0949 10.473C23.0949 10.5749 23.1326 10.652 23.208 10.7042C23.2842 10.7556 23.3807 10.7812 23.4976 10.7812Z" fill="white"/>
</svg>
