<svg width="18" height="14" viewBox="0 0 18 14" fill="none" xmlns="http://www.w3.org/2000/svg">
<rect x="6" y="4" width="11" height="6" rx="2" fill="#9D9B9B" stroke="black"/>
<rect width="5.27571" height="1.94669" rx="0.973344" transform="matrix(-0.512802 -0.858507 0.912381 -0.409342 4.95847 6.46184)" fill="#9D9B9B" stroke="black"/>
<path d="M3.29658 1.83327C3.29707 2.17087 3.0238 2.44485 2.6862 2.44522L1.11307 2.44696C0.775474 2.44733 0.501394 2.17396 0.500898 1.83636V1.83636C0.500402 1.49876 0.773677 1.22478 1.11127 1.22441L2.6844 1.22267C3.022 1.2223 3.29608 1.49568 3.29658 1.83327V1.83327Z" fill="#9D9B9B" stroke="black"/>
<circle cx="8.43677" cy="11.7667" r="1" fill="black" stroke="black"/>
<circle cx="14.4368" cy="11.7667" r="1" fill="black" stroke="black"/>
<path d="M10.4403 9V5.36364H11.7116C11.965 5.36364 12.1739 5.40743 12.3384 5.49503C12.503 5.58144 12.6255 5.69803 12.706 5.84482C12.7865 5.99041 12.8267 6.15199 12.8267 6.32955C12.8267 6.4858 12.7989 6.61482 12.7433 6.71662C12.6888 6.81842 12.6166 6.89891 12.5266 6.9581C12.4379 7.01728 12.3414 7.06108 12.2372 7.08949V7.125C12.3485 7.1321 12.4603 7.17116 12.5728 7.24219C12.6853 7.31321 12.7794 7.41501 12.8551 7.54759C12.9309 7.68016 12.9688 7.84233 12.9688 8.03409C12.9688 8.21638 12.9273 8.38033 12.8445 8.52592C12.7616 8.67152 12.6308 8.78693 12.4521 8.87216C12.2733 8.95739 12.0407 9 11.7543 9H10.4403ZM10.8807 8.60938H11.7543C12.0419 8.60938 12.2461 8.55374 12.3668 8.44247C12.4888 8.33002 12.5497 8.19389 12.5497 8.03409C12.5497 7.91098 12.5183 7.79735 12.4556 7.69318C12.3929 7.58783 12.3035 7.50379 12.1875 7.44105C12.0715 7.37713 11.9342 7.34517 11.7756 7.34517H10.8807V8.60938ZM10.8807 6.96165H11.6974C11.83 6.96165 11.9496 6.93561 12.0561 6.88352C12.1638 6.83144 12.2491 6.75805 12.3118 6.66335C12.3757 6.56866 12.4077 6.45739 12.4077 6.32955C12.4077 6.16974 12.352 6.03421 12.2408 5.92294C12.1295 5.81049 11.9531 5.75426 11.7116 5.75426H10.8807V6.96165Z" fill="white"/>
</svg>
